<mxfile host="app.diagrams.net" modified="2022-09-15T02:08:00.779Z" agent="5.0 (Windows)" etag="71lwhtXOECkuSSOnhh-Q" version="20.3.0" type="github">
  <diagram id="QxwSTe7G2h_gvwUEHdt_" name="Page-1">
    <mxGraphModel dx="1422" dy="819" grid="1" gridSize="10" guides="1" tooltips="1" connect="1" arrows="1" fold="1" page="1" pageScale="1" pageWidth="850" pageHeight="1100" math="0" shadow="0">
      <root>
        <mxCell id="0" />
        <mxCell id="1" parent="0" />
        <mxCell id="nraVTt5EHYt5M0wocnym-2" value="&lt;div&gt;LocalPlayer&lt;/div&gt;&lt;div&gt;&lt;br&gt;&lt;/div&gt;" style="shape=umlActor;verticalLabelPosition=bottom;verticalAlign=top;html=1;outlineConnect=0;" vertex="1" parent="1">
          <mxGeometry x="100" y="20" width="30" height="60" as="geometry" />
        </mxCell>
        <mxCell id="nraVTt5EHYt5M0wocnym-3" value="&lt;div&gt;OnlinePlayer&lt;/div&gt;&lt;div&gt;&lt;br&gt;&lt;/div&gt;" style="shape=umlActor;verticalLabelPosition=bottom;verticalAlign=top;html=1;outlineConnect=0;" vertex="1" parent="1">
          <mxGeometry x="760" y="160" width="30" height="60" as="geometry" />
        </mxCell>
        <mxCell id="nraVTt5EHYt5M0wocnym-20" value="" style="edgeStyle=orthogonalEdgeStyle;rounded=0;orthogonalLoop=1;jettySize=auto;html=1;" edge="1" parent="1" source="nraVTt5EHYt5M0wocnym-2" target="nraVTt5EHYt5M0wocnym-19">
          <mxGeometry relative="1" as="geometry">
            <mxPoint x="115" y="180" as="sourcePoint" />
          </mxGeometry>
        </mxCell>
        <mxCell id="nraVTt5EHYt5M0wocnym-24" style="edgeStyle=orthogonalEdgeStyle;rounded=0;orthogonalLoop=1;jettySize=auto;html=1;entryX=0;entryY=0;entryDx=0;entryDy=30;entryPerimeter=0;" edge="1" parent="1" source="nraVTt5EHYt5M0wocnym-19" target="nraVTt5EHYt5M0wocnym-23">
          <mxGeometry relative="1" as="geometry" />
        </mxCell>
        <mxCell id="nraVTt5EHYt5M0wocnym-35" value="" style="edgeStyle=orthogonalEdgeStyle;rounded=0;orthogonalLoop=1;jettySize=auto;html=1;" edge="1" parent="1" source="nraVTt5EHYt5M0wocnym-19" target="nraVTt5EHYt5M0wocnym-34">
          <mxGeometry relative="1" as="geometry" />
        </mxCell>
        <mxCell id="nraVTt5EHYt5M0wocnym-19" value="&lt;div&gt;PhotonNetwork.Instantiate &lt;br&gt;&lt;/div&gt;" style="whiteSpace=wrap;html=1;rounded=0;shadow=1;" vertex="1" parent="1">
          <mxGeometry x="20" y="240" width="190" height="60" as="geometry" />
        </mxCell>
        <mxCell id="nraVTt5EHYt5M0wocnym-27" style="edgeStyle=orthogonalEdgeStyle;rounded=0;orthogonalLoop=1;jettySize=auto;html=1;dashed=1;" edge="1" parent="1" source="nraVTt5EHYt5M0wocnym-23" target="nraVTt5EHYt5M0wocnym-26">
          <mxGeometry relative="1" as="geometry">
            <Array as="points">
              <mxPoint x="620" y="280" />
              <mxPoint x="620" y="390" />
            </Array>
          </mxGeometry>
        </mxCell>
        <mxCell id="nraVTt5EHYt5M0wocnym-28" style="edgeStyle=orthogonalEdgeStyle;rounded=0;orthogonalLoop=1;jettySize=auto;html=1;entryX=0;entryY=0.3333333333333333;entryDx=0;entryDy=0;entryPerimeter=0;dashed=1;" edge="1" parent="1" source="nraVTt5EHYt5M0wocnym-23" target="nraVTt5EHYt5M0wocnym-25">
          <mxGeometry relative="1" as="geometry" />
        </mxCell>
        <mxCell id="nraVTt5EHYt5M0wocnym-29" style="edgeStyle=orthogonalEdgeStyle;rounded=0;orthogonalLoop=1;jettySize=auto;html=1;entryX=0;entryY=0.3333333333333333;entryDx=0;entryDy=0;entryPerimeter=0;dashed=1;" edge="1" parent="1" source="nraVTt5EHYt5M0wocnym-23" target="nraVTt5EHYt5M0wocnym-3">
          <mxGeometry relative="1" as="geometry">
            <Array as="points">
              <mxPoint x="620" y="280" />
              <mxPoint x="620" y="180" />
            </Array>
          </mxGeometry>
        </mxCell>
        <mxCell id="nraVTt5EHYt5M0wocnym-23" value="Server" style="shape=cube;whiteSpace=wrap;html=1;boundedLbl=1;backgroundOutline=1;darkOpacity=0.05;darkOpacity2=0.1;shadow=1;gradientColor=none;" vertex="1" parent="1">
          <mxGeometry x="350" y="240" width="120" height="80" as="geometry" />
        </mxCell>
        <mxCell id="nraVTt5EHYt5M0wocnym-25" value="&lt;div&gt;OnlinePlayer&lt;/div&gt;&lt;div&gt;&lt;br&gt;&lt;/div&gt;" style="shape=umlActor;verticalLabelPosition=bottom;verticalAlign=top;html=1;outlineConnect=0;" vertex="1" parent="1">
          <mxGeometry x="760" y="260" width="30" height="60" as="geometry" />
        </mxCell>
        <mxCell id="nraVTt5EHYt5M0wocnym-26" value="&lt;div&gt;OnlinePlayer&lt;/div&gt;&lt;div&gt;&lt;br&gt;&lt;/div&gt;" style="shape=umlActor;verticalLabelPosition=bottom;verticalAlign=top;html=1;outlineConnect=0;" vertex="1" parent="1">
          <mxGeometry x="760" y="360" width="30" height="60" as="geometry" />
        </mxCell>
        <mxCell id="nraVTt5EHYt5M0wocnym-32" value="Spread information" style="text;html=1;align=center;verticalAlign=middle;resizable=0;points=[];autosize=1;strokeColor=none;fillColor=none;" vertex="1" parent="1">
          <mxGeometry x="480" y="255" width="130" height="30" as="geometry" />
        </mxCell>
        <mxCell id="nraVTt5EHYt5M0wocnym-38" value="" style="edgeStyle=orthogonalEdgeStyle;rounded=0;orthogonalLoop=1;jettySize=auto;html=1;" edge="1" parent="1" source="nraVTt5EHYt5M0wocnym-34" target="nraVTt5EHYt5M0wocnym-37">
          <mxGeometry relative="1" as="geometry" />
        </mxCell>
        <mxCell id="nraVTt5EHYt5M0wocnym-34" value="Prefab with component MonoBehaviourPun " style="whiteSpace=wrap;html=1;rounded=0;shadow=1;" vertex="1" parent="1">
          <mxGeometry x="20" y="380" width="190" height="60" as="geometry" />
        </mxCell>
        <mxCell id="nraVTt5EHYt5M0wocnym-36" value="Instantiate a character" style="text;html=1;align=center;verticalAlign=middle;resizable=0;points=[];autosize=1;strokeColor=none;fillColor=none;" vertex="1" parent="1">
          <mxGeometry x="120" y="150" width="140" height="30" as="geometry" />
        </mxCell>
        <mxCell id="nraVTt5EHYt5M0wocnym-40" value="" style="edgeStyle=orthogonalEdgeStyle;rounded=0;orthogonalLoop=1;jettySize=auto;html=1;" edge="1" parent="1" source="nraVTt5EHYt5M0wocnym-37" target="nraVTt5EHYt5M0wocnym-39">
          <mxGeometry relative="1" as="geometry" />
        </mxCell>
        <mxCell id="nraVTt5EHYt5M0wocnym-45" style="edgeStyle=orthogonalEdgeStyle;rounded=0;orthogonalLoop=1;jettySize=auto;html=1;" edge="1" parent="1" source="nraVTt5EHYt5M0wocnym-37">
          <mxGeometry relative="1" as="geometry">
            <mxPoint x="115" y="670" as="targetPoint" />
          </mxGeometry>
        </mxCell>
        <mxCell id="nraVTt5EHYt5M0wocnym-37" value="photonView.IsMine" style="rhombus;whiteSpace=wrap;html=1;rounded=0;shadow=1;" vertex="1" parent="1">
          <mxGeometry x="51.25" y="510" width="127.5" height="80" as="geometry" />
        </mxCell>
        <mxCell id="nraVTt5EHYt5M0wocnym-39" value="Destroy or disable CharacterController" style="whiteSpace=wrap;html=1;rounded=0;shadow=1;" vertex="1" parent="1">
          <mxGeometry x="262.5" y="520" width="120" height="60" as="geometry" />
        </mxCell>
        <mxCell id="nraVTt5EHYt5M0wocnym-41" value="false" style="text;html=1;align=center;verticalAlign=middle;resizable=0;points=[];autosize=1;strokeColor=none;fillColor=none;" vertex="1" parent="1">
          <mxGeometry x="190" y="520" width="50" height="30" as="geometry" />
        </mxCell>
        <mxCell id="nraVTt5EHYt5M0wocnym-42" value="true" style="text;html=1;align=center;verticalAlign=middle;resizable=0;points=[];autosize=1;strokeColor=none;fillColor=none;" vertex="1" parent="1">
          <mxGeometry x="130" y="610" width="40" height="30" as="geometry" />
        </mxCell>
        <mxCell id="nraVTt5EHYt5M0wocnym-46" value="Keep the CharacterController so I can controll it" style="whiteSpace=wrap;html=1;rounded=0;shadow=1;" vertex="1" parent="1">
          <mxGeometry x="55" y="670" width="120" height="60" as="geometry" />
        </mxCell>
      </root>
    </mxGraphModel>
  </diagram>
</mxfile>
